<?xml version="1.0" encoding="utf-8"?>
<svg version="1.1" id="Layer_1"
xmlns="http://www.w3.org/2000/svg"
xmlns:xlink="http://www.w3.org/1999/xlink"
width="1074px" height="346px"
xml:space="preserve">
<g id="PathID_19" transform="matrix(1, 0, 0, 1, 203, -344)" opacity="1">
</g>
<g id="PathID_20" transform="matrix(1, 0, 0, 1, 203, -344)" opacity="1">
</g>
<g id="PathID_21" transform="matrix(4.95136, 0, 0, 4.95136, 395.55, 263.4)" opacity="1">
<path style="fill:#384348;fill-opacity:1" d="M4.1 -35.45L12.05 -35.45L12.05 0L4.1 0L4.1 -35.45" />
</g>
<g id="PathID_22" transform="matrix(4.95136, 0, 0, 4.95136, 395.55, 263.4)" opacity="1">
</g>
<g id="PathID_23" transform="matrix(4.95136, 0, 0, 4.95136, 467.55, 263.4)" opacity="1">
<path style="fill:#384348;fill-opacity:1" d="M13.5 -35.45Q14.45 -33.8 15.65 -31.3L18.15 -25.9Q19.45 -23.05 20.7 -20L23.15 -14.3L25.55 -20Q26.8 -23.05 28.1 -25.9L30.65 -31.3Q31.85 -33.8 32.75 -35.45L40.05 -35.45Q40.55 -31.95 40.95 -27.55Q41.4 -23.2 41.75 -18.45L42.35 -8.95L42.85 0L35.05 0L34.65 -11.25Q34.4 -17.35 33.9 -23.55L31.85 -18.8L29.6 -13.55L27.5 -8.55L25.75 -4.5L20.15 -4.5L18.4 -8.55L16.3 -13.55L14.05 -18.8L12 -23.55Q11.5 -17.35 11.25 -11.25L10.85 0L3.05 0L3.55 -8.95L4.15 -18.45Q4.5 -23.2 4.95 -27.55Q5.35 -31.95 5.9 -35.45L13.5 -35.45" />
</g>
<g id="PathID_24" transform="matrix(4.95136, 0, 0, 4.95136, 467.55, 263.4)" opacity="1">
</g>
<g id="PathID_25" transform="matrix(4.95136, 0, 0, 4.95136, 686.7, 263.4)" opacity="1">
<path style="fill:#384348;fill-opacity:1" d="M21.4 -29.3Q15.8 -29.3 13.35 -26.25Q10.85 -23.15 10.85 -17.75Q10.85 -15.15 11.45 -13Q12.05 -10.9 13.3 -9.35Q14.55 -7.8 16.35 -7Q18.2 -6.15 20.65 -6.15L22.95 -6.2Q23.9 -6.25 24.6 -6.4L24.6 -18.75L32.6 -18.75L32.6 -1.15Q31.15 -0.6 28 0Q24.8 0.65 20.15 0.65Q16.15 0.65 12.9 -0.55Q9.65 -1.8 7.35 -4.15Q5.05 -6.5 3.8 -9.9Q2.55 -13.35 2.55 -17.75Q2.55 -22.2 3.95 -25.65Q5.3 -29.05 7.7 -31.45Q10.15 -33.85 13.4 -35.05Q16.65 -36.3 20.3 -36.3Q22.8 -36.3 24.85 -35.95Q26.85 -35.6 28.35 -35.2Q29.8 -34.75 30.75 -34.3Q31.7 -33.85 32.1 -33.55L29.8 -27.15Q28.15 -28.05 26 -28.7Q23.9 -29.3 21.4 -29.3" />
</g>
<g id="PathID_26" transform="matrix(4.95136, 0, 0, 4.95136, 686.7, 263.4)" opacity="1">
</g>
<g id="PathID_27" transform="matrix(4.95136, 0, 0, 4.95136, 856.4, 263.4)" opacity="1">
<path style="fill:#384348;fill-opacity:1" d="M10.8 -17.75Q10.8 -15.15 11.45 -13.05Q12.05 -10.95 13.25 -9.45Q14.5 -7.9 16.2 -7.1Q17.95 -6.3 20.2 -6.3Q22.4 -6.3 24.2 -7.1Q25.95 -7.9 27.15 -9.45Q28.35 -10.95 29 -13.05Q29.65 -15.15 29.65 -17.75Q29.65 -20.35 29 -22.5Q28.35 -24.6 27.15 -26.15Q25.95 -27.65 24.2 -28.45Q22.4 -29.25 20.2 -29.25Q17.95 -29.25 16.2 -28.45Q14.5 -27.6 13.25 -26.05Q12.05 -24.55 11.45 -22.45Q10.8 -20.3 10.8 -17.75M37.9 -17.75Q37.9 -13.2 36.5 -9.75Q35.15 -6.3 32.8 -3.95Q30.45 -1.65 27.2 -0.45Q23.95 0.7 20.2 0.7Q16.6 0.7 13.35 -0.45Q10.15 -1.65 7.7 -3.95Q5.3 -6.3 3.95 -9.75Q2.55 -13.2 2.55 -17.75Q2.55 -22.3 4 -25.75Q5.4 -29.2 7.85 -31.6Q10.3 -33.95 13.5 -35.1Q16.7 -36.3 20.2 -36.3Q23.85 -36.3 27.05 -35.1Q30.3 -33.95 32.7 -31.6Q35.1 -29.2 36.5 -25.75Q37.9 -22.3 37.9 -17.75" />
</g>
<g id="PathID_28" transform="matrix(4.95136, 0, 0, 4.95136, 856.4, 263.4)" opacity="1">
</g>
<g id="PathID_29" transform="matrix(1.56834, 0, 0, 1.56834, -437.85, -474.1)" opacity="1">
<path style="fill:#D61518;fill-opacity:1" d="M319.35 390.3Q319.35 393.55 318.1 396.45Q316.85 399.35 314.7 401.5Q312.55 403.65 309.65 404.9Q306.75 406.15 303.5 406.15Q300.2 406.15 297.3 404.9Q294.4 403.65 292.25 401.5Q290.1 399.35 288.85 396.45Q287.65 393.55 287.65 390.3L287.65 325.9Q287.65 322.6 288.85 319.7Q290.1 316.8 292.25 314.65Q294.4 312.5 297.3 311.25Q300.2 310.05 303.5 310.05L367.9 310.05Q371.15 310.05 374.05 311.25Q376.95 312.5 379.1 314.65Q381.25 316.8 382.5 319.7Q383.75 322.6 383.75 325.9Q383.75 329.15 382.5 332.05Q381.25 334.95 379.1 337.1Q376.95 339.25 374.05 340.5Q371.15 341.75 367.9 341.75L340.3 341.75Q332.7 341.65 328.5 342.75Q324.25 343.9 322.2 346.65Q320.15 349.45 319.7 354.05Q319.25 358.7 319.35 365.65L319.35 390.3" />
</g>
<g id="PathID_30" transform="matrix(1.56834, 0, 0, 1.56834, -437.85, -474.1)" opacity="1">
</g>
<g id="PathID_31" transform="matrix(1.56834, 0, 0, 1.56834, -437.85, -474.1)" opacity="1">
<path style="fill:#F1C71D;fill-opacity:1" d="M457.95 390.3L457.95 365.65Q458 358.7 457.55 354.05Q457.1 349.45 455.05 346.65Q453 343.9 448.75 342.75Q444.55 341.65 437 341.75L409.45 341.75Q406.15 341.75 403.25 340.5Q400.35 339.25 398.2 337.1Q396.05 334.95 394.8 332.05Q393.6 329.15 393.6 325.9Q393.6 322.6 394.8 319.7Q396.05 316.8 398.2 314.65Q400.35 312.5 403.25 311.25Q406.15 310.05 409.45 310.05L473.85 310.05Q477.1 310.05 480 311.25Q482.9 312.5 485.05 314.65Q487.2 316.8 488.45 319.7Q489.7 322.6 489.7 325.9L489.7 390.3Q489.7 393.55 488.45 396.45Q487.2 399.35 485.05 401.5Q482.9 403.65 480 404.9Q477.1 406.15 473.85 406.15Q470.55 406.15 467.65 404.9Q464.75 403.65 462.6 401.5Q460.45 399.35 459.2 396.45Q458 393.55 458 390.3L457.95 390.3" />
</g>
<g id="PathID_32" transform="matrix(1.56834, 0, 0, 1.56834, -437.85, -474.1)" opacity="1">
</g>
<g id="PathID_33" transform="matrix(1.56834, 0, 0, 1.56834, -437.85, -474.1)" opacity="1">
<path style="fill:#A2C21F;fill-opacity:1" d="M319.35 458.6Q319.25 465.5 319.7 470.1Q320.15 474.7 322.2 477.5Q324.25 480.25 328.5 481.4Q332.7 482.5 340.3 482.45L367.9 482.45Q371.15 482.45 374.05 483.65Q376.95 484.9 379.1 487.05Q381.25 489.2 382.5 492.1Q383.75 495 383.75 498.3Q383.75 501.55 382.5 504.45Q381.25 507.35 379.1 509.5Q376.95 511.65 374.05 512.9Q371.15 514.15 367.9 514.15L303.5 514.15Q300.2 514.15 297.3 512.9Q294.4 511.65 292.25 509.5Q290.1 507.35 288.85 504.45Q287.65 501.55 287.65 498.3L287.65 433.9Q287.65 430.6 288.85 427.7Q290.1 424.8 292.25 422.65Q294.4 420.5 297.3 419.25Q300.2 418.05 303.5 418.05Q306.75 418.05 309.65 419.25Q312.55 420.5 314.7 422.65Q316.85 424.8 318.1 427.7Q319.35 430.6 319.35 433.9L319.35 458.6" />
</g>
<g id="PathID_34" transform="matrix(1.56834, 0, 0, 1.56834, -437.85, -474.1)" opacity="1">
</g>
<g id="PathID_35" transform="matrix(1.56834, 0, 0, 1.56834, -437.85, -474.1)" opacity="1">
<path style="fill:#1B94D3;fill-opacity:1" d="M458 433.9Q458 430.6 459.2 427.7Q460.45 424.8 462.6 422.65Q464.75 420.5 467.65 419.25Q470.55 418.05 473.85 418.05Q477.1 418.05 480 419.25Q482.9 420.5 485.05 422.65Q487.2 424.8 488.45 427.7Q489.7 430.6 489.7 433.9L489.7 498.3Q489.7 501.55 488.45 504.45Q487.2 507.35 485.05 509.5Q482.9 511.65 480 512.9Q477.1 514.15 473.85 514.15L409.45 514.15Q406.15 514.15 403.25 512.9Q400.35 511.65 398.2 509.5Q396.05 507.35 394.8 504.45Q393.6 501.55 393.6 498.3Q393.6 495 394.8 492.1Q396.05 489.2 398.2 487.05Q400.35 484.9 403.25 483.65Q406.15 482.45 409.45 482.45L437 482.45Q444.55 482.5 448.75 481.4Q453 480.25 455.05 477.5Q457.1 474.7 457.55 470.1Q458 465.5 457.95 458.6L457.95 433.9L458 433.9" />
</g>
<g id="PathID_36" transform="matrix(1.56834, 0, 0, 1.56834, -437.85, -474.1)" opacity="1">
</g>
<g id="PathID_37" transform="matrix(1.56834, 0, 0, 1.56834, -437.85, -474.1)" opacity="1">
<path style="fill:#FF9696;fill-opacity:0.8" d="M349.35 361.55L371.75 361.55Q373.85 361.55 375.75 362.35Q377.65 363.15 379.05 364.6Q380.5 366 381.3 367.9Q382.15 369.8 382.15 371.95L382.15 394.35Q382.15 396.45 381.3 398.35Q380.5 400.25 379.1 401.65Q377.65 403.1 375.8 403.9Q373.9 404.75 371.75 404.75L349.35 404.75Q347.2 404.75 345.3 403.9Q343.4 403.1 342 401.7Q340.55 400.25 339.75 398.4Q338.95 396.5 338.95 394.35L338.95 371.95Q338.9 369.8 339.7 367.9Q340.55 366 341.95 364.6Q343.35 363.15 345.25 362.35Q347.15 361.55 349.35 361.55" />
</g>
<g id="PathID_38" transform="matrix(1.56834, 0, 0, 1.56834, -437.85, -474.1)" opacity="1">
</g>
<g id="PathID_39" transform="matrix(1.56834, 0, 0, 1.56834, -437.85, -474.1)" opacity="1">
<path style="fill:#F8E080;fill-opacity:1" d="M432 362.35Q433.9 363.15 435.3 364.6Q436.75 366 437.55 367.9Q438.4 369.8 438.4 371.95L438.4 394.35Q438.4 396.5 437.55 398.4Q436.75 400.25 435.3 401.7Q433.9 403.1 432 403.9Q430.1 404.75 428 404.75L405.6 404.75Q403.4 404.75 401.5 403.9Q399.65 403.1 398.2 401.65Q396.8 400.25 396 398.35Q395.2 396.45 395.2 394.35L395.2 371.95Q395.2 369.8 396 367.9Q396.8 366 398.25 364.6Q399.65 363.15 401.55 362.35Q403.45 361.55 405.6 361.55L428 361.55Q430.1 361.55 432 362.35" />
</g>
<g id="PathID_40" transform="matrix(1.56834, 0, 0, 1.56834, -437.85, -474.1)" opacity="1">
</g>
<g id="PathID_41" transform="matrix(1.56834, 0, 0, 1.56834, -437.85, -474.1)" opacity="1">
<path style="fill:#CDE179;fill-opacity:1" d="M345.25 461.8Q343.35 461 341.95 459.55Q340.55 458.15 339.7 456.2Q338.9 454.3 338.95 452.15L338.95 429.75Q338.95 427.6 339.75 425.7Q340.55 423.8 342 422.4Q343.4 420.95 345.3 420.15Q347.2 419.35 349.35 419.35L371.75 419.35Q373.9 419.35 375.8 420.15Q377.65 420.95 379.1 422.4Q380.5 423.8 381.3 425.7Q382.15 427.6 382.15 429.75L382.15 452.25Q382.15 454.4 381.3 456.3Q380.5 458.15 379.05 459.6Q377.65 461 375.75 461.8Q373.85 462.65 371.75 462.65L349.35 462.65Q347.15 462.65 345.25 461.8" />
</g>
<g id="PathID_42" transform="matrix(1.56834, 0, 0, 1.56834, -437.85, -474.1)" opacity="1">
</g>
<g id="PathID_43" transform="matrix(1.56834, 0, 0, 1.56834, -437.85, -474.1)" opacity="1">
<path style="fill:#79C2E9;fill-opacity:1" d="M428 462.65L405.6 462.65Q403.45 462.65 401.55 461.8Q399.65 461 398.25 459.6Q396.8 458.15 396 456.3Q395.2 454.4 395.2 452.25L395.2 429.75Q395.2 427.6 396 425.7Q396.8 423.8 398.2 422.4Q399.65 420.95 401.5 420.15Q403.4 419.35 405.6 419.35L428 419.35Q430.1 419.35 432 420.15Q433.9 420.95 435.3 422.4Q436.75 423.8 437.55 425.7Q438.4 427.6 438.4 429.75L438.4 452.15Q438.4 454.3 437.55 456.2Q436.75 458.15 435.3 459.55Q433.9 461 432 461.8Q430.1 462.65 428 462.65" />
</g>
<g id="PathID_44" transform="matrix(1.56834, 0, 0, 1.56834, -437.85, -474.1)" opacity="1">
</g>
</svg>
